<?xml version="1.0" encoding="UTF-8" standalone="no"?>
<!DOCTYPE svg PUBLIC "-//W3C//DTD SVG 1.1//EN"
 "http://www.w3.org/Graphics/SVG/1.1/DTD/svg11.dtd">
<!-- Generated by graphviz version 2.38.0 (20140413.2041)
 -->
<!-- Title: G Pages: 1 -->
<svg width="879pt" height="841pt"
 viewBox="0.00 0.00 879.00 841.00" xmlns="http://www.w3.org/2000/svg" xmlns:xlink="http://www.w3.org/1999/xlink">
<g id="graph0" class="graph" transform="scale(1 1) rotate(0) translate(4 837)">
<title>G</title>
<polygon fill="white" stroke="none" points="-4,4 -4,-837 875,-837 875,4 -4,4"/>
<!-- n0 -->
<g id="node1" class="node"><title>n0</title>
<polygon fill="aliceblue" stroke="black" points="106.037,-446.62 106.037,-560.62 325.037,-560.62 325.037,-446.62 106.037,-446.62"/>
<text text-anchor="middle" x="215.537" y="-545.42" font-family="Times New Roman,serif" font-size="14.00">«JavaScript»</text>
<text text-anchor="middle" x="215.537" y="-530.42" font-family="Times New Roman,serif" font-size="14.00">routes/api/v1/asignaturas.js</text>
<polyline fill="none" stroke="black" points="106.037,-522.62 325.037,-522.62 "/>
<text text-anchor="start" x="114.037" y="-507.42" font-family="Times New Roman,serif" font-size="14.00">+module.exports : identifier = router</text>
<polyline fill="none" stroke="black" points="106.037,-499.62 325.037,-499.62 "/>
<text text-anchor="start" x="114.037" y="-484.42" font-family="Times New Roman,serif" font-size="14.00">&#45;Asignatura(Asignatura)</text>
<text text-anchor="start" x="114.037" y="-469.42" font-family="Times New Roman,serif" font-size="14.00">&#45;Grado(Grado)</text>
<text text-anchor="start" x="114.037" y="-454.42" font-family="Times New Roman,serif" font-size="14.00">&#45;router()</text>
</g>
<!-- n7 -->
<g id="node2" class="node"><title>n7</title>
<polygon fill="azure" stroke="black" points="-0.392288,-717.681 -0.392288,-755.681 136.608,-755.681 136.608,-717.681 -0.392288,-717.681"/>
<text text-anchor="middle" x="68.1077" y="-740.481" font-family="Times New Roman,serif" font-size="14.00">«JavaScript Require»</text>
<text text-anchor="middle" x="68.1077" y="-725.481" font-family="Times New Roman,serif" font-size="14.00">async</text>
</g>
<!-- n0&#45;&gt;n7 -->
<g id="edge3" class="edge"><title>n0&#45;&gt;n7</title>
<path fill="none" stroke="red" stroke-dasharray="5,2" d="M121.323,-560.633C121.323,-560.633 121.323,-707.554 121.323,-707.554"/>
<polygon fill="red" stroke="red" points="117.823,-707.554 121.323,-717.554 124.823,-707.554 117.823,-707.554"/>
<text text-anchor="middle" x="91.8226" y="-637.894" font-family="Times New Roman,serif" font-size="14.00" fill="red">«Require»</text>
</g>
<!-- n6 -->
<g id="node5" class="node"><title>n6</title>
<polygon fill="azure" stroke="black" points="454.573,-534.495 454.573,-572.495 591.573,-572.495 591.573,-534.495 454.573,-534.495"/>
<text text-anchor="middle" x="523.073" y="-557.295" font-family="Times New Roman,serif" font-size="14.00">«JavaScript Require»</text>
<text text-anchor="middle" x="523.073" y="-542.295" font-family="Times New Roman,serif" font-size="14.00">mongoose</text>
</g>
<!-- n0&#45;&gt;n6 -->
<g id="edge2" class="edge"><title>n0&#45;&gt;n6</title>
<path fill="none" stroke="red" stroke-dasharray="5,2" d="M325.262,-547C325.262,-547 444.568,-547 444.568,-547"/>
<polygon fill="red" stroke="red" points="444.568,-550.5 454.568,-547 444.568,-543.5 444.568,-550.5"/>
<text text-anchor="middle" x="355.415" y="-550.8" font-family="Times New Roman,serif" font-size="14.00" fill="red">«Require»</text>
</g>
<!-- n5 -->
<g id="node9" class="node"><title>n5</title>
<polygon fill="azure" stroke="black" points="356.453,-484.688 356.453,-522.688 493.453,-522.688 493.453,-484.688 356.453,-484.688"/>
<text text-anchor="middle" x="424.953" y="-507.488" font-family="Times New Roman,serif" font-size="14.00">«JavaScript Require»</text>
<text text-anchor="middle" x="424.953" y="-492.488" font-family="Times New Roman,serif" font-size="14.00">express</text>
</g>
<!-- n0&#45;&gt;n5 -->
<g id="edge1" class="edge"><title>n0&#45;&gt;n5</title>
<path fill="none" stroke="red" stroke-dasharray="5,2" d="M325.152,-503C325.152,-503 346.283,-503 346.283,-503"/>
<polygon fill="red" stroke="red" points="346.283,-506.5 356.283,-503 346.283,-499.5 346.283,-506.5"/>
<text text-anchor="middle" x="320.968" y="-491.8" font-family="Times New Roman,serif" font-size="14.00" fill="red">«Require»</text>
</g>
<!-- n4 -->
<g id="node3" class="node"><title>n4</title>
<polygon fill="aliceblue" stroke="black" points="531.404,-662.744 531.404,-791.744 750.404,-791.744 750.404,-662.744 531.404,-662.744"/>
<text text-anchor="middle" x="640.904" y="-776.544" font-family="Times New Roman,serif" font-size="14.00">«JavaScript»</text>
<text text-anchor="middle" x="640.904" y="-761.544" font-family="Times New Roman,serif" font-size="14.00">routes/api/v1/universidades.js</text>
<polyline fill="none" stroke="black" points="531.404,-753.744 750.404,-753.744 "/>
<text text-anchor="start" x="539.404" y="-738.544" font-family="Times New Roman,serif" font-size="14.00">+module.exports : identifier = router</text>
<polyline fill="none" stroke="black" points="531.404,-730.744 750.404,-730.744 "/>
<text text-anchor="start" x="539.404" y="-715.544" font-family="Times New Roman,serif" font-size="14.00">&#45;Campus(Campus)</text>
<text text-anchor="start" x="539.404" y="-700.544" font-family="Times New Roman,serif" font-size="14.00">&#45;Grados(Grado)</text>
<text text-anchor="start" x="539.404" y="-685.544" font-family="Times New Roman,serif" font-size="14.00">&#45;Universidad(Universidad)</text>
<text text-anchor="start" x="539.404" y="-670.544" font-family="Times New Roman,serif" font-size="14.00">&#45;router()</text>
</g>
<!-- n4&#45;&gt;n6 -->
<g id="edge15" class="edge"><title>n4&#45;&gt;n6</title>
<path fill="none" stroke="red" stroke-dasharray="5,2" d="M561.489,-662.546C561.489,-662.546 561.489,-582.576 561.489,-582.576"/>
<polygon fill="red" stroke="red" points="564.989,-582.576 561.489,-572.576 557.989,-582.576 564.989,-582.576"/>
<text text-anchor="middle" x="531.989" y="-626.361" font-family="Times New Roman,serif" font-size="14.00" fill="red">«Require»</text>
</g>
<!-- n4&#45;&gt;n5 -->
<g id="edge14" class="edge"><title>n4&#45;&gt;n5</title>
<path fill="none" stroke="red" stroke-dasharray="5,2" d="M531.285,-678C479.606,-678 429.11,-678 429.11,-678 429.11,-678 429.11,-533.009 429.11,-533.009"/>
<polygon fill="red" stroke="red" points="432.61,-533.009 429.11,-523.009 425.61,-533.009 432.61,-533.009"/>
<text text-anchor="middle" x="458.61" y="-660.392" font-family="Times New Roman,serif" font-size="14.00" fill="red">«Require»</text>
</g>
<!-- n112 -->
<g id="node4" class="node"><title>n112</title>
<polygon fill="azure" stroke="black" points="706.73,-0.0941972 706.73,-38.0942 870.73,-38.0942 870.73,-0.0941972 706.73,-0.0941972"/>
<text text-anchor="middle" x="788.73" y="-22.8942" font-family="Times New Roman,serif" font-size="14.00">«JavaScript Require»</text>
<text text-anchor="middle" x="788.73" y="-7.8942" font-family="Times New Roman,serif" font-size="14.00">nodemailer&#45;smtp&#45;transport</text>
</g>
<!-- n2 -->
<g id="node6" class="node"><title>n2</title>
<polygon fill="aliceblue" stroke="black" points="233.9,-718.018 233.9,-832.018 452.9,-832.018 452.9,-718.018 233.9,-718.018"/>
<text text-anchor="middle" x="343.4" y="-816.818" font-family="Times New Roman,serif" font-size="14.00">«JavaScript»</text>
<text text-anchor="middle" x="343.4" y="-801.818" font-family="Times New Roman,serif" font-size="14.00">routes/api/v1/campus.js</text>
<polyline fill="none" stroke="black" points="233.9,-794.018 452.9,-794.018 "/>
<text text-anchor="start" x="241.9" y="-778.818" font-family="Times New Roman,serif" font-size="14.00">+module.exports : identifier = router</text>
<polyline fill="none" stroke="black" points="233.9,-771.018 452.9,-771.018 "/>
<text text-anchor="start" x="241.9" y="-755.818" font-family="Times New Roman,serif" font-size="14.00">&#45;Campus(Campus)</text>
<text text-anchor="start" x="241.9" y="-740.818" font-family="Times New Roman,serif" font-size="14.00">&#45;Grados(Grado)</text>
<text text-anchor="start" x="241.9" y="-725.818" font-family="Times New Roman,serif" font-size="14.00">&#45;router()</text>
</g>
<!-- n2&#45;&gt;n7 -->
<g id="edge10" class="edge"><title>n2&#45;&gt;n7</title>
<path fill="none" stroke="red" stroke-dasharray="5,2" d="M233.806,-743C233.806,-743 146.935,-743 146.935,-743"/>
<polygon fill="red" stroke="red" points="146.935,-739.5 136.935,-743 146.935,-746.5 146.935,-739.5"/>
<text text-anchor="middle" x="190.371" y="-731.8" font-family="Times New Roman,serif" font-size="14.00" fill="red">«Require»</text>
</g>
<!-- n2&#45;&gt;n6 -->
<g id="edge9" class="edge"><title>n2&#45;&gt;n6</title>
<path fill="none" stroke="red" stroke-dasharray="5,2" d="M441.005,-717.904C441.005,-656.934 441.005,-569 441.005,-569 441.005,-569 444.557,-569 444.557,-569"/>
<polygon fill="red" stroke="red" points="444.557,-572.5 454.557,-569 444.557,-565.5 444.557,-572.5"/>
<text text-anchor="middle" x="470.505" y="-645.476" font-family="Times New Roman,serif" font-size="14.00" fill="red">«Require»</text>
</g>
<!-- n2&#45;&gt;n5 -->
<g id="edge8" class="edge"><title>n2&#45;&gt;n5</title>
<path fill="none" stroke="red" stroke-dasharray="5,2" d="M417.215,-717.807C417.215,-717.807 417.215,-532.804 417.215,-532.804"/>
<polygon fill="red" stroke="red" points="420.715,-532.804 417.215,-522.804 413.715,-532.804 420.715,-532.804"/>
<text text-anchor="middle" x="446.715" y="-629.106" font-family="Times New Roman,serif" font-size="14.00" fill="red">«Require»</text>
</g>
<!-- n3 -->
<g id="node7" class="node"><title>n3</title>
<polygon fill="aliceblue" stroke="black" points="186.32,-594.346 186.32,-693.346 405.32,-693.346 405.32,-594.346 186.32,-594.346"/>
<text text-anchor="middle" x="295.82" y="-678.146" font-family="Times New Roman,serif" font-size="14.00">«JavaScript»</text>
<text text-anchor="middle" x="295.82" y="-663.146" font-family="Times New Roman,serif" font-size="14.00">routes/api/v1/grados.js</text>
<polyline fill="none" stroke="black" points="186.32,-655.346 405.32,-655.346 "/>
<text text-anchor="start" x="194.32" y="-640.146" font-family="Times New Roman,serif" font-size="14.00">+module.exports : identifier = router</text>
<polyline fill="none" stroke="black" points="186.32,-632.346 405.32,-632.346 "/>
<text text-anchor="start" x="194.32" y="-617.146" font-family="Times New Roman,serif" font-size="14.00">&#45;Grado(Grado)</text>
<text text-anchor="start" x="194.32" y="-602.146" font-family="Times New Roman,serif" font-size="14.00">&#45;router()</text>
</g>
<!-- n3&#45;&gt;n7 -->
<g id="edge13" class="edge"><title>n3&#45;&gt;n7</title>
<path fill="none" stroke="red" stroke-dasharray="5,2" d="M210.11,-693.463C210.11,-712.614 210.11,-730 210.11,-730 210.11,-730 146.613,-730 146.613,-730"/>
<polygon fill="red" stroke="red" points="146.613,-726.5 136.613,-730 146.613,-733.5 146.613,-726.5"/>
<text text-anchor="middle" x="167.13" y="-718.8" font-family="Times New Roman,serif" font-size="14.00" fill="red">«Require»</text>
</g>
<!-- n3&#45;&gt;n6 -->
<g id="edge12" class="edge"><title>n3&#45;&gt;n6</title>
<path fill="none" stroke="red" stroke-dasharray="5,2" d="M389.031,-593.912C389.031,-578.264 389.031,-565 389.031,-565 389.031,-565 444.481,-565 444.481,-565"/>
<polygon fill="red" stroke="red" points="444.481,-568.5 454.481,-565 444.481,-561.5 444.481,-568.5"/>
<text text-anchor="middle" x="372.8" y="-568.8" font-family="Times New Roman,serif" font-size="14.00" fill="red">«Require»</text>
</g>
<!-- n3&#45;&gt;n5 -->
<g id="edge11" class="edge"><title>n3&#45;&gt;n5</title>
<path fill="none" stroke="red" stroke-dasharray="5,2" d="M372.742,-594.037C372.742,-594.037 372.742,-532.689 372.742,-532.689"/>
<polygon fill="red" stroke="red" points="376.242,-532.689 372.742,-522.689 369.242,-532.689 376.242,-532.689"/>
<text text-anchor="middle" x="402.242" y="-552.163" font-family="Times New Roman,serif" font-size="14.00" fill="red">«Require»</text>
</g>
<!-- n1 -->
<g id="node8" class="node"><title>n1</title>
<polygon fill="aliceblue" stroke="black" points="489.114,-222.711 489.114,-321.711 708.114,-321.711 708.114,-222.711 489.114,-222.711"/>
<text text-anchor="middle" x="598.614" y="-306.511" font-family="Times New Roman,serif" font-size="14.00">«JavaScript»</text>
<text text-anchor="middle" x="598.614" y="-291.511" font-family="Times New Roman,serif" font-size="14.00">routes/api/v1/contacto.js</text>
<polyline fill="none" stroke="black" points="489.114,-283.711 708.114,-283.711 "/>
<text text-anchor="start" x="497.114" y="-268.511" font-family="Times New Roman,serif" font-size="14.00">+module.exports : identifier = router</text>
<polyline fill="none" stroke="black" points="489.114,-260.711 708.114,-260.711 "/>
<text text-anchor="start" x="497.114" y="-245.511" font-family="Times New Roman,serif" font-size="14.00">&#45;router()</text>
<text text-anchor="start" x="497.114" y="-230.511" font-family="Times New Roman,serif" font-size="14.00">&#45;transport()</text>
</g>
<!-- n1&#45;&gt;n112 -->
<g id="edge7" class="edge"><title>n1&#45;&gt;n112</title>
<path fill="none" stroke="red" stroke-dasharray="5,2" d="M698.824,-222.487C698.824,-148.745 698.824,-19 698.824,-19 698.824,-19 699.59,-19 699.59,-19"/>
<polygon fill="red" stroke="red" points="696.489,-22.5001 706.489,-19 696.489,-15.5001 696.489,-22.5001"/>
<text text-anchor="middle" x="669.324" y="-124.16" font-family="Times New Roman,serif" font-size="14.00" fill="red">«Require»</text>
</g>
<!-- n1&#45;&gt;n6 -->
<g id="edge5" class="edge"><title>n1&#45;&gt;n6</title>
<path fill="none" stroke="red" stroke-dasharray="5,2" d="M558.866,-321.852C558.866,-321.852 558.866,-524.471 558.866,-524.471"/>
<polygon fill="red" stroke="red" points="555.366,-524.471 558.866,-534.471 562.366,-524.471 555.366,-524.471"/>
<text text-anchor="middle" x="529.366" y="-411.961" font-family="Times New Roman,serif" font-size="14.00" fill="red">«Require»</text>
</g>
<!-- n1&#45;&gt;n5 -->
<g id="edge4" class="edge"><title>n1&#45;&gt;n5</title>
<path fill="none" stroke="red" stroke-dasharray="5,2" d="M526.16,-321.721C526.16,-389.535 526.16,-503 526.16,-503 526.16,-503 503.58,-503 503.58,-503"/>
<polygon fill="red" stroke="red" points="503.58,-499.5 493.58,-503 503.58,-506.5 503.58,-499.5"/>
<text text-anchor="middle" x="496.66" y="-427.45" font-family="Times New Roman,serif" font-size="14.00" fill="red">«Require»</text>
</g>
<!-- n111 -->
<g id="node10" class="node"><title>n111</title>
<polygon fill="azure" stroke="black" points="553.918,-172.943 553.918,-210.943 690.918,-210.943 690.918,-172.943 553.918,-172.943"/>
<text text-anchor="middle" x="622.418" y="-195.743" font-family="Times New Roman,serif" font-size="14.00">«JavaScript Require»</text>
<text text-anchor="middle" x="622.418" y="-180.743" font-family="Times New Roman,serif" font-size="14.00">nodemailer</text>
</g>
<!-- n1&#45;&gt;n111 -->
<g id="edge6" class="edge"><title>n1&#45;&gt;n111</title>
<path fill="none" stroke="red" stroke-dasharray="5,2" d="M622.418,-222.289C622.418,-222.289 622.418,-221 622.418,-221"/>
<polygon fill="red" stroke="red" points="625.918,-221 622.418,-211 618.918,-221.001 625.918,-221"/>
<text text-anchor="middle" x="592.918" y="-210.445" font-family="Times New Roman,serif" font-size="14.00" fill="red">«Require»</text>
</g>
</g>
</svg>
